<svg width="73" height="72" viewBox="0 0 73 72" fill="none" xmlns="http://www.w3.org/2000/svg">
<g clip-path="url(#clip0_2_189)">
<path fill-rule="evenodd" clip-rule="evenodd" d="M14.7604 16.3471C18.8915 10.7636 24.8225 7.58056 31.5472 5.83176C39.7865 3.68911 48.6052 1.15253 55.8268 5.6676C64.7926 11.2733 73.4236 20.6475 71.9875 31.1159C70.5866 41.329 57.9485 44.0957 49.7061 50.2869C40.3629 57.305 33.2155 71.8054 21.9398 68.709C10.6227 65.6011 8.86993 50.2571 7.27642 38.6351C6.15605 30.4639 9.85633 22.9751 14.7604 16.3471Z" fill="#F6F7FB"/>
<g clip-path="url(#clip1_2_189)">
<path d="M48.3125 10.6875H24.6875C23.3453 10.6888 22.0584 11.2226 21.1093 12.1718C20.1601 13.1209 19.6263 14.4078 19.625 15.75V56.25C19.6263 57.5922 20.1601 58.8791 21.1093 59.8282C22.0584 60.7774 23.3453 61.3112 24.6875 61.3125H48.3125C49.6547 61.3112 50.9416 60.7774 51.8907 59.8282C52.8399 58.8791 53.3737 57.5922 53.375 56.25V15.75C53.3737 14.4078 52.8399 13.1209 51.8907 12.1718C50.9416 11.2226 49.6547 10.6888 48.3125 10.6875ZM51.6875 56.25C51.6875 57.1451 51.3319 58.0036 50.699 58.6365C50.066 59.2694 49.2076 59.625 48.3125 59.625H24.6875C23.7924 59.625 22.9339 59.2694 22.301 58.6365C21.6681 58.0036 21.3125 57.1451 21.3125 56.25V15.75C21.3125 14.8549 21.6681 13.9964 22.301 13.3635C22.9339 12.7306 23.7924 12.375 24.6875 12.375H48.3125C49.2076 12.375 50.066 12.7306 50.699 13.3635C51.3319 13.9964 51.6875 14.8549 51.6875 15.75V56.25Z" fill="black"/>
<path d="M38.1875 52.875H34.8125C34.1412 52.875 33.4973 53.1417 33.0226 53.6164C32.5479 54.0911 32.2812 54.7349 32.2812 55.4062C32.2812 56.0776 32.5479 56.7214 33.0226 57.1961C33.4973 57.6708 34.1412 57.9375 34.8125 57.9375H38.1875C38.8588 57.9375 39.5027 57.6708 39.9774 57.1961C40.4521 56.7214 40.7188 56.0776 40.7188 55.4062C40.7188 54.7349 40.4521 54.0911 39.9774 53.6164C39.5027 53.1417 38.8588 52.875 38.1875 52.875ZM38.1875 56.25H34.8125C34.5887 56.25 34.3741 56.1611 34.2159 56.0029C34.0576 55.8446 33.9688 55.63 33.9688 55.4062C33.9688 55.1825 34.0576 54.9679 34.2159 54.8096C34.3741 54.6514 34.5887 54.5625 34.8125 54.5625H38.1875C38.4113 54.5625 38.6259 54.6514 38.7841 54.8096C38.9424 54.9679 39.0312 55.1825 39.0312 55.4062C39.0312 55.63 38.9424 55.8446 38.7841 56.0029C38.6259 56.1611 38.4113 56.25 38.1875 56.25Z" fill="black"/>
<path d="M30.5938 14.0625H32.2812V15.75H30.5938V14.0625Z" fill="black"/>
<path d="M33.9688 14.0625H39.0312V15.75H33.9688V14.0625Z" fill="black"/>
<path d="M35.9036 32.3777C36.0618 32.5359 36.2764 32.6247 36.5001 32.6247C36.7239 32.6247 36.9385 32.5359 37.0967 32.3777L43.0628 26.4115C43.8483 25.6192 44.2879 24.548 44.2854 23.4323C44.283 22.3166 43.8387 21.2473 43.0498 20.4584C42.2609 19.6695 41.1916 19.2252 40.0759 19.2228C38.9603 19.2203 37.889 19.6599 37.0967 20.4454L36.5001 21.0419L35.9036 20.4454C35.1113 19.6599 34.04 19.2203 32.9244 19.2228C31.8087 19.2252 30.7394 19.6695 29.9505 20.4584C29.1616 21.2473 28.7173 22.3166 28.7149 23.4323C28.7124 24.548 29.152 25.6192 29.9375 26.4115L35.9036 32.3777ZM31.1305 21.6384C31.3656 21.4034 31.6446 21.2169 31.9518 21.0896C32.2589 20.9624 32.5881 20.8969 32.9205 20.8969C33.253 20.8969 33.5822 20.9624 33.8893 21.0896C34.1964 21.2169 34.4755 21.4034 34.7106 21.6384L35.9036 22.8324C36.0648 22.9848 36.2783 23.0697 36.5001 23.0697C36.722 23.0697 36.9355 22.9848 37.0967 22.8324L38.2897 21.6384C38.7645 21.1637 39.4084 20.897 40.0798 20.897C40.7511 20.897 41.395 21.1637 41.8698 21.6384C42.3445 22.1132 42.6112 22.7571 42.6112 23.4285C42.6112 24.0999 42.3445 24.7437 41.8698 25.2185L36.5001 30.5881L31.1305 25.2185C30.6568 24.7432 30.3907 24.0995 30.3907 23.4285C30.3907 22.7574 30.6568 22.1137 31.1305 21.6384Z" fill="black"/>
<path d="M42.3219 39.8416C42.2479 39.6878 42.1283 39.5606 41.9795 39.4771C41.8307 39.3936 41.6597 39.358 41.4899 39.375C41.3215 39.3895 41.1613 39.4543 41.0301 39.561C40.8989 39.6677 40.8028 39.8113 40.7542 39.9732L39.1671 45.2619L37.3252 36.6641C37.285 36.4795 37.1841 36.3138 37.0387 36.1935C36.8932 36.0731 36.7115 36.005 36.5228 36C36.3334 35.9934 36.1474 36.0513 35.9953 36.1643C35.8432 36.2773 35.7341 36.4387 35.6858 36.6219L33.9502 42.988L33.0929 39.9867C33.0468 39.8226 32.9521 39.6764 32.8212 39.5672C32.6903 39.458 32.5294 39.391 32.3597 39.375C32.1901 39.3578 32.0193 39.393 31.8702 39.4758C31.7212 39.5586 31.6011 39.6851 31.5261 39.8382L30.0723 42.75H24.6875V44.4375H30.5938C30.7505 44.4376 30.9043 44.394 31.0376 44.3116C31.171 44.2291 31.2788 44.1112 31.3489 43.9709L32.0661 42.5366L33.1571 46.3571C33.2075 46.5334 33.314 46.6885 33.4605 46.7988C33.6069 46.9092 33.7854 46.9689 33.9688 46.9688H33.9738C34.1581 46.9677 34.3369 46.9063 34.4831 46.794C34.6292 46.6818 34.7345 46.5247 34.783 46.3469L36.4021 40.4111L38.2061 48.8326C38.2453 49.0158 38.3443 49.1808 38.4876 49.3015C38.6309 49.4221 38.8103 49.4917 38.9975 49.4992H39.0312C39.2128 49.4992 39.3895 49.4407 39.5351 49.3323C39.6807 49.2239 39.7875 49.0715 39.8396 48.8976L41.7591 42.4969L42.4948 43.9684C42.5646 44.1091 42.6722 44.2276 42.8056 44.3105C42.939 44.3934 43.0929 44.4374 43.25 44.4375H48.3125V42.75H43.7714L42.3219 39.8416Z" fill="black"/>
</g>
</g>
<defs>
<clipPath id="clip0_2_189">
<rect width="72" height="72" fill="white" transform="translate(0.5)"/>
</clipPath>
<clipPath id="clip1_2_189">
<rect width="33.75" height="50.625" fill="white" transform="translate(19.625 10.6875)"/>
</clipPath>
</defs>
</svg>
