<svg width="73" height="72" viewBox="0 0 73 72" fill="none" xmlns="http://www.w3.org/2000/svg">
<g clip-path="url(#clip0_2_225)">
<path fill-rule="evenodd" clip-rule="evenodd" d="M14.7604 16.3471C18.8915 10.7636 24.8225 7.58056 31.5472 5.83176C39.7865 3.68911 48.6052 1.15253 55.8268 5.6676C64.7926 11.2733 73.4236 20.6475 71.9875 31.1159C70.5866 41.329 57.9485 44.0957 49.7061 50.2869C40.3629 57.305 33.2155 71.8054 21.9398 68.709C10.6227 65.6011 8.86993 50.2571 7.27642 38.6351C6.15605 30.4639 9.85633 22.9751 14.7604 16.3471Z" fill="#F6F7FB"/>
<g clip-path="url(#clip1_2_225)">
<path d="M52.5563 23.4163C53.4649 17.1447 49.5732 11.1749 43.4689 9.47503C37.3642 7.77521 30.9471 10.8748 28.4837 16.7128C25.6087 14.7463 21.7987 14.8364 19.0203 16.9369C16.2414 19.0374 15.1154 22.6782 16.2234 25.9803C11.442 27.9306 8.70929 32.9909 9.70133 38.0583C10.6929 43.1257 15.1321 46.7828 20.2957 46.7859H21.1955C21.6924 46.7859 22.0952 46.383 22.0952 45.8861C22.0952 45.3892 21.6924 44.9864 21.1955 44.9864H20.2957C15.8377 44.9846 12.0527 41.7203 11.3959 37.311C10.7386 32.9018 13.4076 28.6757 17.671 27.3744C17.9223 27.297 18.1271 27.1138 18.2321 26.8731C18.3371 26.6319 18.3314 26.3573 18.2163 26.1209C17.8046 25.2703 17.5924 24.3367 17.5964 23.3917C17.5981 20.8642 19.1099 18.5822 21.4362 17.5946C23.763 16.6069 26.4544 17.1042 28.2742 18.8585C28.5004 19.076 28.8238 19.1599 29.1269 19.0795C29.4305 18.9996 29.67 18.7672 29.7596 18.4667C31.4489 12.8786 37.2737 9.6455 42.9092 11.1669C48.5451 12.6888 51.9509 18.4139 50.5986 24.0929C50.5318 24.3732 50.6034 24.6684 50.791 24.8868C50.9786 25.1056 51.2598 25.2211 51.5467 25.1979C51.628 25.1913 51.7027 25.1913 51.7879 25.1913C57.2542 25.1913 61.6854 29.6225 61.6854 35.0888C61.6854 40.5551 57.2542 44.9864 51.7879 44.9864C51.291 44.9864 50.8881 45.3892 50.8881 45.8861C50.8881 46.383 51.291 46.7859 51.7879 46.7859C58.1044 46.7943 63.2864 41.7862 63.4938 35.4732C63.7012 29.1603 58.8596 23.8231 52.5563 23.4163Z" fill="black"/>
<path d="M49.0569 52.3405C49.0727 52.2895 49.0833 52.2372 49.0885 52.1845V47.6856C49.0885 44.2073 46.2688 41.3872 42.7901 41.3872C39.3118 41.3872 36.4916 44.2073 36.4916 47.6856V56.6834C36.4916 59.1683 34.4772 61.1823 31.9928 61.1823C29.5083 61.1823 27.4939 59.1683 27.4939 56.6834V46.6202C28.5685 46.2406 29.2886 45.2266 29.2934 44.0865V42.7083C30.4304 42.308 31.4655 41.6631 32.3258 40.8187C33.845 39.2994 34.6965 37.2376 34.6921 35.0887V32.3894C34.6921 31.3956 33.8863 30.5898 32.8925 30.5898H31.093C30.5961 30.5898 30.1932 30.9927 30.1932 31.4896C30.1932 31.9865 30.5961 32.3894 31.093 32.3894H32.8925V35.0887C32.8952 36.7587 32.2335 38.3605 31.0534 39.5419C29.4762 41.1218 27.1806 41.7488 25.0195 41.1903C22.2376 40.472 20.2943 37.962 20.2956 35.0887V32.3894H22.0952C22.5921 32.3894 22.995 31.9865 22.995 31.4896C22.995 30.9927 22.5921 30.5898 22.0952 30.5898H20.2956C19.3019 30.5898 18.4961 31.3956 18.4961 32.3894V35.0887C18.4952 38.5218 20.6585 41.5818 23.8948 42.7263V44.0865C23.8996 45.2266 24.6197 46.2406 25.6943 46.6202V56.6834C25.6943 60.1621 28.5145 62.9818 31.9928 62.9818C35.4715 62.9818 38.2912 60.1621 38.2912 56.6834V47.6856C38.2912 45.2011 40.3056 43.1867 42.7901 43.1867C45.2746 43.1867 47.289 45.2011 47.289 47.6856V52.1845C47.2942 52.2372 47.3048 52.2895 47.3206 52.3405C46.0698 52.7653 45.3102 54.0328 45.5254 55.3364C45.7407 56.6395 46.8676 57.5955 48.1887 57.5955C49.5099 57.5955 50.6368 56.6395 50.8521 55.3364C51.0673 54.0328 50.3077 52.7653 49.0569 52.3405ZM27.4939 44.0865C27.4939 44.5834 27.091 44.9863 26.5941 44.9863C26.0972 44.9863 25.6943 44.5834 25.6943 44.0865V43.1366C26.2923 43.2039 26.8959 43.2039 27.4939 43.1366V44.0865ZM48.1887 55.7836C47.6918 55.7836 47.289 55.3807 47.289 54.8838C47.289 54.3869 47.6918 53.9841 48.1887 53.9841C48.6856 53.9841 49.0885 54.3869 49.0885 54.8838C49.0885 55.3807 48.6856 55.7836 48.1887 55.7836Z" fill="black"/>
</g>
</g>
<defs>
<clipPath id="clip0_2_225">
<rect width="72" height="72" fill="white" transform="translate(0.5)"/>
</clipPath>
<clipPath id="clip1_2_225">
<rect width="54" height="54" fill="white" transform="translate(9.5 9)"/>
</clipPath>
</defs>
</svg>
