<svg width="73" height="72" viewBox="0 0 73 72" fill="none" xmlns="http://www.w3.org/2000/svg">
<g clip-path="url(#clip0_2_204)">
<path fill-rule="evenodd" clip-rule="evenodd" d="M14.7604 16.3471C18.8915 10.7636 24.8225 7.58056 31.5472 5.83176C39.7865 3.68911 48.6052 1.15253 55.8268 5.6676C64.7926 11.2733 73.4236 20.6475 71.9875 31.1159C70.5866 41.329 57.9485 44.0957 49.7061 50.2869C40.3629 57.305 33.2155 71.8054 21.9398 68.709C10.6227 65.6011 8.86993 50.2571 7.27642 38.6351C6.15605 30.4639 9.85633 22.9751 14.7604 16.3471Z" fill="#EA4C89"/>
<g clip-path="url(#clip1_2_204)">
<path d="M38.4451 20.243C38.8911 20.181 39.2024 19.7692 39.1404 19.3232C39.0785 18.8771 38.6667 18.5659 38.2206 18.628C37.7746 18.6899 37.4634 19.1018 37.5255 19.5478C37.5874 19.9937 37.9992 20.3049 38.4451 20.243Z" fill="white"/>
<path d="M24.26 16.9201C24.6577 16.9201 24.98 16.5977 24.98 16.2001V14.0401C24.98 13.6424 24.6577 13.3201 24.26 13.3201C23.8624 13.3201 23.54 13.6424 23.54 14.0401V16.2001C23.54 16.5977 23.8624 16.9201 24.26 16.9201Z" fill="white"/>
<path d="M24.26 18.3601C23.8624 18.3601 23.54 18.6825 23.54 19.0801V21.2401C23.54 21.6377 23.8624 21.9601 24.26 21.9601C24.6577 21.9601 24.98 21.6377 24.98 21.2401V19.0801C24.98 18.6825 24.6577 18.3601 24.26 18.3601Z" fill="white"/>
<path d="M20.6599 18.36H22.8199C23.2176 18.36 23.5399 18.0377 23.5399 17.64C23.5399 17.2424 23.2176 16.92 22.8199 16.92H20.6599C20.2623 16.92 19.9399 17.2424 19.9399 17.64C19.9399 18.0377 20.2623 18.36 20.6599 18.36Z" fill="white"/>
<path d="M25.7 18.36H27.86C28.2576 18.36 28.58 18.0377 28.58 17.64C28.58 17.2424 28.2576 16.92 27.86 16.92H25.7C25.3024 16.92 24.98 17.2424 24.98 17.64C24.98 18.0377 25.3024 18.36 25.7 18.36Z" fill="white"/>
<path d="M53.3265 22.6802H19.6737C17.4385 22.6802 15.6201 24.4985 15.6201 26.7338V49.585C15.6201 51.8209 17.439 53.6402 19.675 53.6402H31.9458L30.9172 57.2402H23.5401C23.1425 57.2402 22.8201 57.5626 22.8201 57.9602C22.8201 58.3578 23.1425 58.6802 23.5401 58.6802H50.1801C50.5781 58.6802 50.9001 58.3578 50.9001 57.9602C50.9001 57.5626 50.5781 57.2402 50.1801 57.2402H42.8032L41.775 53.6402H53.3267C55.5619 53.6402 57.3803 51.8218 57.3803 49.5866V26.7338C57.3801 24.4985 55.5618 22.6802 53.3265 22.6802ZM19.6737 24.1202H53.3265C54.768 24.1202 55.9401 25.2927 55.9401 26.7338V47.1602H17.0601V26.7338C17.0601 25.2927 18.2326 24.1202 19.6737 24.1202ZM41.3052 57.2402H32.4147L33.4434 53.6402H40.2771L41.3052 57.2402ZM53.3265 52.2002H19.675C18.2334 52.2002 17.0601 51.0269 17.0601 49.585V48.6002H55.9401V49.5866C55.9401 51.0277 54.768 52.2002 53.3265 52.2002Z" fill="white"/>
<path d="M36.5003 51.522C37.1083 51.522 37.6012 51.0291 37.6012 50.4211C37.6012 49.8131 37.1083 49.3202 36.5003 49.3202C35.8923 49.3202 35.3994 49.8131 35.3994 50.4211C35.3994 51.0291 35.8923 51.522 36.5003 51.522Z" fill="white"/>
<path d="M20.6599 34.2H22.0999V35.64C22.0999 36.0376 22.4223 36.36 22.8199 36.36H25.6999C26.0976 36.36 26.4199 36.0376 26.4199 35.64V34.2H27.8599C28.2576 34.2 28.5799 33.8776 28.5799 33.48V30.6C28.5799 30.2023 28.2576 29.88 27.8599 29.88H26.4199V28.44C26.4199 28.0424 26.0976 27.72 25.6999 27.72H22.8199C22.4223 27.72 22.0999 28.0424 22.0999 28.44V29.88H20.6599C20.2623 29.88 19.9399 30.2023 19.9399 30.6V33.48C19.9399 33.8776 20.2623 34.2 20.6599 34.2ZM21.3799 31.32H22.8199C23.2176 31.32 23.5399 30.9976 23.5399 30.6V29.16H24.9799V30.6C24.9799 30.9976 25.3023 31.32 25.6999 31.32H27.1399V32.76H25.6999C25.3023 32.76 24.9799 33.0823 24.9799 33.48V34.92H23.5399V33.48C23.5399 33.0823 23.2176 32.76 22.8199 32.76H21.3799V31.32Z" fill="white"/>
<path d="M31.4602 35.6399H50.1802C50.5782 35.6399 50.9002 35.3176 50.9002 34.9199V29.1599C50.9002 28.7623 50.5782 28.4399 50.1802 28.4399H31.4602C31.0626 28.4399 30.7402 28.7623 30.7402 29.1599V34.9199C30.7402 35.3176 31.0626 35.6399 31.4602 35.6399ZM32.1802 29.8799H49.4602V34.1999H32.1802V29.8799Z" fill="white"/>
<path d="M20.6602 39.24C20.6602 39.6376 20.9825 39.96 21.3802 39.96H51.6202C52.0181 39.96 52.3402 39.6376 52.3402 39.24C52.3402 38.8424 52.0181 38.52 51.6202 38.52H21.3802C20.9825 38.52 20.6602 38.8424 20.6602 39.24Z" fill="white"/>
<path d="M43.7002 40.6801H21.3802C20.9825 40.6801 20.6602 41.0024 20.6602 41.4001C20.6602 41.7977 20.9825 42.1201 21.3802 42.1201H43.7002C44.0981 42.1201 44.4202 41.7977 44.4202 41.4001C44.4202 41.0024 44.0981 40.6801 43.7002 40.6801Z" fill="white"/>
<path d="M33.6202 42.8401H21.3802C20.9825 42.8401 20.6602 43.1625 20.6602 43.5601C20.6602 43.9577 20.9825 44.2801 21.3802 44.2801H33.6202C34.0181 44.2801 34.3402 43.9577 34.3402 43.5601C34.3402 43.1625 34.0181 42.8401 33.6202 42.8401Z" fill="white"/>
</g>
</g>
<defs>
<clipPath id="clip0_2_204">
<rect width="72" height="72" fill="white" transform="translate(0.5)"/>
</clipPath>
<clipPath id="clip1_2_204">
<rect width="41.7602" height="45.36" fill="white" transform="translate(15.6201 13.3201)"/>
</clipPath>
</defs>
</svg>
